<svg id="Layer_1" data-name="Layer 1" xmlns="http://www.w3.org/2000/svg" viewBox="0 0 3434.27 3784.5"><defs><style>.cls-1{fill:#fffdf3;}.cls-2{fill:#273069;}.cls-3{fill:none;}.cls-4{fill:#c01e58;}</style></defs><path class="cls-1" d="M3556.87,365.06c-38.31-18.24-78.91-31.22-120.3-40.58L2964,217.55a4585.37,4585.37,0,0,0-2023.83,0L467.53,324.48c-41.39,9.36-82,22.34-120.3,40.58-73.66,35.07-112.31,75.36-112.31,154.38v1226c0,819.32,283.5,1041.81,848.29,1485,118.24,92.8,252.27,198,395,318l351.95,296a189.42,189.42,0,0,0,243.86,0l351.95-296c142.69-120,276.72-225.22,395-318,564.79-443.24,848.28-665.73,848.28-1485v-1226C3669.18,440.42,3630.54,400.13,3556.87,365.06Z" transform="translate(-234.92 -104.5)"/><path class="cls-2" d="M833.65,923.81q.24,31.26.47,62.52a11.62,11.62,0,0,1-2.67,7.83,8.38,8.38,0,0,1-6.63,3.24q-97.55.38-195.09.81a8.8,8.8,0,0,1-6.84-2.71,9.32,9.32,0,0,1-2.54-6.63V721.39a12.08,12.08,0,0,1,2.5-7.3,11.88,11.88,0,0,1,6.74-4.5q28.88-7.51,57.81-14.74a7.09,7.09,0,0,1,6.57,1.28,7.93,7.93,0,0,1,2.73,6.43l.75,208.58a9.85,9.85,0,0,0,2.56,6.93,8.1,8.1,0,0,0,6.83,2.48q58.65-3.78,117.36-7.23a8,8,0,0,1,6.66,2.83A11.18,11.18,0,0,1,833.65,923.81Z" transform="translate(-234.92 -104.5)"/><path class="cls-2" d="M935.85,740.73q.09,10.28.19,20.54a11.61,11.61,0,0,0,2.8,8,7.27,7.27,0,0,0,6.66,2.59q52.8-6.65,105.69-12.63a7.23,7.23,0,0,1,6.67,2.89,13.19,13.19,0,0,1,2.82,8.55l.72,71.84a15,15,0,0,1-2.64,9,8.7,8.7,0,0,1-6.61,4.09q-52.92,3.61-105.8,7.65a8.92,8.92,0,0,0-6.6,3.93,13.7,13.7,0,0,0-2.66,8.52q.09,9.28.17,18.58a12.41,12.41,0,0,0,2.81,8.17,7.86,7.86,0,0,0,6.67,3.07q60.72-3.22,121.49-6.08a7.77,7.77,0,0,1,6.68,3.36,14.1,14.1,0,0,1,2.82,8.79q.36,36.17.73,72.35a14.45,14.45,0,0,1-2.65,8.93,8,8,0,0,1-6.61,3.68q-99.51.32-199,.68A8.43,8.43,0,0,1,863.5,994a12.05,12.05,0,0,1-2.8-7.94q-1.29-159.87-2.59-319.72a14.37,14.37,0,0,1,2.65-8.53,10.73,10.73,0,0,1,6.57-4.7q98.76-21.2,198-38.7a6.82,6.82,0,0,1,6.67,2.51,12.7,12.7,0,0,1,2.82,8.44l.72,71.29a16,16,0,0,1-2.65,9.28q-2.7,4-6.6,4.54-60.69,8-121.24,17.14A9.75,9.75,0,0,0,938.5,732,14.55,14.55,0,0,0,935.85,740.73Z" transform="translate(-234.92 -104.5)"/><path class="cls-2" d="M1262.84,1003.34c-20.86,0-40.47-5.63-58.82-16.55s-34.47-25.48-48.34-43.57-24.91-39.19-33.1-63.37-12.43-49.92-12.71-77.57a267.67,267.67,0,0,1,42.92-148.55c13.49-20.48,29.31-37.66,47.45-51.36s37.66-22.19,58.56-25.12c28.72-4,53.82,1.18,75.28,16s39,37,52.58,66.58a19.14,19.14,0,0,1,1.07,10.72q-.93,6.22-4,9.41-23.34,24.45-46.65,48.51a7.94,7.94,0,0,1-7,2.57c-2.62-.37-4.85-2-6.71-4.92q-12.35-20.82-27.54-32.47t-36-9.42c-9.92,1-19.22,4.95-27.9,11.64a96.18,96.18,0,0,0-22.67,25.42,132.92,132.92,0,0,0-15.12,34.86,140.49,140.49,0,0,0-5.28,39.76A131.74,131.74,0,0,0,1194.9,835a111.17,111.17,0,0,0,15.77,32,81.05,81.05,0,0,0,23.1,21.76,49.16,49.16,0,0,0,28,7.64,61.36,61.36,0,0,0,29.27-9q14.4-8.48,22.85-27.14,1.9-4.66.32-8.32a5.3,5.3,0,0,0-5.52-3.46q-22.5,1.05-45,2.18-3.91.2-6.69-3.6a15.77,15.77,0,0,1-2.83-9.41q-.32-33.4-.64-66.82a17.27,17.27,0,0,1,2.65-9.77c1.8-2.76,4-4.26,6.62-4.47q67.32-5.46,134.73-9.86c2.61-.17,4.91,1,6.89,3.37s3.12,5.78,3.42,10.07q.85,9.94,1,24.33t-.93,29.72c-1.61,27.1-6.5,52.36-14.65,75.61s-18.76,43.32-31.78,60.13-28,29.92-44.83,39.33A108.52,108.52,0,0,1,1262.84,1003.34Z" transform="translate(-234.92 -104.5)"/><path class="cls-2" d="M1529.33,679.43q.09,12.66.17,25.33a17.78,17.78,0,0,0,2.81,10.11c1.85,2.72,4.08,4,6.7,3.87q53.17-2.79,106.39-4.87c2.61-.1,4.85,1.25,6.69,4a18.57,18.57,0,0,1,2.8,10.36l.42,84.92a19.36,19.36,0,0,1-2.7,10.52c-1.81,2.92-4,4.4-6.64,4.46q-53.12,1.26-106.22,3c-2.62.08-4.83,1.57-6.64,4.44a18.72,18.72,0,0,0-2.67,10.34l.15,22.92A18.19,18.19,0,0,0,1533.4,879q2.76,4.15,6.69,4.07,60.9-1.35,121.81-2.31,3.91-.06,6.68,4.22a18.94,18.94,0,0,1,2.79,10.44q.21,42.54.4,85.09a19.1,19.1,0,0,1-2.69,10.48c-1.82,2.89-4,4.32-6.63,4.32q-99.54.1-199.06.28-3.92,0-6.68-4.15a17.94,17.94,0,0,1-2.82-10.08q-1.55-203-3.1-406a19.08,19.08,0,0,1,2.67-10.36c1.81-2.94,4-4.56,6.65-4.82q100-9.83,200.19-15.69,3.93-.22,6.72,3.93a18.45,18.45,0,0,1,2.8,10.32l.39,83.86a19.63,19.63,0,0,1-2.71,10.6c-1.82,3-4,4.49-6.66,4.61q-61.11,2.68-122.18,6.51c-2.62.16-4.84,1.72-6.65,4.64A19.09,19.09,0,0,0,1529.33,679.43Z" transform="translate(-234.92 -104.5)"/><path class="cls-2" d="M1990.85,551.13q-.12,214.5-.26,429a19.71,19.71,0,0,1-2.74,10.67q-2.73,4.4-6.64,4.39-28.87,0-57.76,0-3.92,0-8.2-3.77a26.32,26.32,0,0,1-6.64-8.77q-51-115.06-102.45-229.09-2.37-4.95-4.92-4t-2.52,7.23l.57,223.44a19.45,19.45,0,0,1-2.72,10.61c-1.83,2.92-4.06,4.37-6.67,4.37l-58.57,0c-2.62,0-4.86-1.44-6.7-4.33a19.34,19.34,0,0,1-2.79-10.54q-.81-212.07-1.63-424.13a19.9,19.9,0,0,1,2.72-10.67c1.82-3,4-4.53,6.68-4.65q29.54-1.32,59.09-2.29c2.62-.09,5.38,1,8.28,3.17a22.55,22.55,0,0,1,6.72,8.22q51.49,113.09,102.62,228.17,2.36,5,4.91,4.37c1.7-.42,2.55-2.73,2.55-6.91l-.15-224.53a19.67,19.67,0,0,1,2.75-10.68c1.83-2.93,4.06-4.42,6.69-4.44q29.17-.18,58.33,0,3.94,0,6.7,4.43A19.79,19.79,0,0,1,1990.85,551.13Z" transform="translate(-234.92 -104.5)"/><path class="cls-2" d="M2050.05,980.17l.69-428.27a19.33,19.33,0,0,1,2.78-10.59c1.84-2.88,4.08-4.3,6.7-4.25q53.81,1.14,107.56,3.43c41.23,1.76,74.88,22.73,100.91,61.83q21.09,31.89,31.85,74.6T2311,772.06q-.3,52.49-11.51,94.66T2267,939.47q-19.71,27.46-45,41.63t-55.8,14.16l-106.77-.06c-2.6,0-4.82-1.46-6.64-4.38A19.74,19.74,0,0,1,2050.05,980.17Zm87.15-99.53,29.39.31a65.64,65.64,0,0,0,22.74-4.07q11.77-4.17,21.22-16.1t15.63-33.71q6.18-21.78,6.34-56.93t-5.83-57.28q-6-22.12-15.56-34.55T2190,661.15a65,65,0,0,0-22.59-5.1q-14.74-.48-29.49-.88c-2.63-.07-4.86,1.33-6.7,4.18a19.06,19.06,0,0,0-2.78,10.52l-.57,195.72a19.59,19.59,0,0,0,2.71,10.62C2132.37,879.14,2134.59,880.61,2137.2,880.64Z" transform="translate(-234.92 -104.5)"/><path class="cls-2" d="M2380.74,844.19q21,21.75,41.68,34.21c13.78,8.34,26.66,12.61,38.67,12.92q17.23.45,26.29-6.67t9.18-21.78q.06-7.62-3.81-12.19a32.18,32.18,0,0,0-10.32-7.76,73.22,73.22,0,0,0-15-5.31,161.44,161.44,0,0,1-17.6-5.42q-8.6-2.7-20.13-6.43A131.14,131.14,0,0,1,2406,815.28a149.66,149.66,0,0,1-24-16.87,101.81,101.81,0,0,1-21.21-25.62q-9.32-15.51-14.88-36.72t-5.38-49.76c.17-27.93,3.84-50.82,11-68.52s16.26-31.46,27.21-41.25a80.24,80.24,0,0,1,36.51-19.12,122.55,122.55,0,0,1,39-2.51,128.67,128.67,0,0,1,59,20.65c17.32,11.47,33.88,27.2,49.66,47a19.21,19.21,0,0,1,3.44,10.19,18.5,18.5,0,0,1-2.05,10.19q-15.57,30.49-31.13,61.61-2.4,4.49-6.32,5.34c-2.63.58-5-.38-7-2.88-13.23-13.49-25.57-23.4-37-29.61s-22-9.7-31.71-10.43c-2.89-.22-6.22-.36-10-.45a32,32,0,0,0-10.81,1.6,17.27,17.27,0,0,0-8.49,6.28q-3.37,4.56-3.43,12.94t8.13,15.48a94,94,0,0,0,18.75,12.53,146.67,146.67,0,0,0,20.33,8.73q9.78,3.3,12.53,4.07a231,231,0,0,1,30.87,14.1c11.19,6,21.64,14.51,31.34,25.39s17.82,24.72,24.33,41.44,9.66,37.3,9.44,61.86c-.21,23-3.12,42.78-8.75,59.4s-13.37,30.3-23.24,41a92.08,92.08,0,0,1-35.41,24q-20.6,7.88-45.62,7.91a135.75,135.75,0,0,1-37.9-5.08,139.06,139.06,0,0,1-32.75-14.17,156.67,156.67,0,0,1-28.22-21.58,238,238,0,0,1-23.9-26.59q-3.1-3.69-3.46-10.07a22.17,22.17,0,0,1,2-11.22q15.27-33.5,30.58-66.61,2.37-4.75,6.31-5.85A6.85,6.85,0,0,1,2380.74,844.19Z" transform="translate(-234.92 -104.5)"/><path class="cls-2" d="M2736.4,796.67c.28-28.36,4.46-54.76,12.53-78.86s18.83-44.47,32.3-61,29.24-28.49,47.29-36,37.22-9.13,57.47-5.32,39.29,12.62,57.1,26a210.72,210.72,0,0,1,46.5,48.64,243.22,243.22,0,0,1,31.19,63,218.94,218.94,0,0,1,11.09,71.16A198.27,198.27,0,0,1,3019.58,893a191.58,191.58,0,0,1-32.32,56.33,162.62,162.62,0,0,1-47.47,39.1,119.37,119.37,0,0,1-57.63,14.91,110.12,110.12,0,0,1-57.32-15.76q-26.82-15.95-46.49-44t-31-66.17A271.48,271.48,0,0,1,2736.4,796.67Zm77.39,6.42a133,133,0,0,0,5.09,38.43A116.4,116.4,0,0,0,2833.6,874a81.87,81.87,0,0,0,22.25,22.82,52.15,52.15,0,0,0,27.27,9.3,50.92,50.92,0,0,0,27.43-6.52,76.66,76.66,0,0,0,22.85-19.51,94.76,94.76,0,0,0,15.5-28.72,110.4,110.4,0,0,0,5.8-35.08,121,121,0,0,0-5.13-35.94,112.55,112.55,0,0,0-14.92-31.73A100.69,100.69,0,0,0,2912.24,725a58.45,58.45,0,0,0-27.21-11.7,46.43,46.43,0,0,0-27.39,4.25A65.47,65.47,0,0,0,2835,736q-9.7,12.21-15.35,29.84A125,125,0,0,0,2813.79,803.09Z" transform="translate(-234.92 -104.5)"/><path class="cls-2" d="M3149,769.3q0,9.09-.1,18.16a12.06,12.06,0,0,0,2.67,7.76,10,10,0,0,0,6.59,4q52.41,7.83,104.71,16.28a10.69,10.69,0,0,1,6.58,3.85,10.92,10.92,0,0,1,2.71,7.18q0,27.75,0,55.5a8.39,8.39,0,0,1-2.73,6.47,8.17,8.17,0,0,1-6.61,2.14q-52.48-5.07-105.06-9.77a7.9,7.9,0,0,0-6.64,2.46,10,10,0,0,0-2.76,7.2q-.28,48.32-.56,96.63a10.78,10.78,0,0,1-2.76,7.42,8.57,8.57,0,0,1-6.63,3l-58.75-.23a8.32,8.32,0,0,1-6.59-3.25,11.75,11.75,0,0,1-2.66-7.85q1.22-157.57,2.42-315.13a9.67,9.67,0,0,1,2.75-7.24,6.81,6.81,0,0,1,6.58-1.77q98.48,21.93,196.31,47.44a12.11,12.11,0,0,1,6.54,4.47,11.86,11.86,0,0,1,2.7,7.38v53.87a7.46,7.46,0,0,1-9.28,7.62q-59.91-11.67-120-22.36a7.32,7.32,0,0,0-6.61,1.86A9,9,0,0,0,3149,769.3Z" transform="translate(-234.92 -104.5)"/><path class="cls-3" d="M2976.59,2073.92l-103-15a11.06,11.06,0,0,1-8.29-6l-46-93.29a11,11,0,0,0-19.75,0l-46,93.29a11,11,0,0,1-8.29,6l-102.95,15a11,11,0,0,0-6.11,18.78l74.5,72.61a11,11,0,0,1,3.17,9.75l-17.59,102.54a11,11,0,0,0,16,11.6l92.08-48.41a11.05,11.05,0,0,1,10.25,0l92.08,48.41a11,11,0,0,0,16-11.6L2905,2175.06a11,11,0,0,1,3.17-9.75l74.5-72.61A11,11,0,0,0,2976.59,2073.92Z" transform="translate(-234.92 -104.5)"/><path class="cls-3" d="M1266.64,2073.92l-103-15a11,11,0,0,1-8.29-6l-46-93.29a11,11,0,0,0-19.75,0l-46,93.29a11,11,0,0,1-8.29,6l-102.95,15a11,11,0,0,0-6.11,18.78l74.5,72.61a11,11,0,0,1,3.17,9.75L986.3,2277.6a11,11,0,0,0,16,11.6l92.08-48.41a11.05,11.05,0,0,1,10.25,0l92.08,48.41a11,11,0,0,0,16-11.6l-17.59-102.54a11,11,0,0,1,3.17-9.75l74.5-72.61A11,11,0,0,0,1266.64,2073.92Z" transform="translate(-234.92 -104.5)"/><path class="cls-4" d="M1916.81,2968.22c0,42.77-.14,81.41-.39,107.19,9.89,37.05,21.73,76,35.63,112.14,13.9-36.15,25.75-75.09,35.63-112.14-.26-26.34-.38-65.34-.41-108.34,14.18,0,28.34,0,42.45.45,26.58-.39,52.92,2.22,85,1.06-18.63-22.76-44.27-40.33-72.89-50.43a248.94,248.94,0,0,0-54.52-12.92c0-62.13.11-124.12.07-163.05,14.16,0,28.3,0,42.39.44,26.58-.39,52.92,2.23,85,1.06-18.63-22.76-44.27-40.33-72.89-50.43a248.88,248.88,0,0,0-54.45-12.91V2517.28c14.16-.05,28.3,0,42.39.44,26.58-.38,52.92,2.23,85,1.07-18.63-22.77-44.27-40.34-72.89-50.44a248.88,248.88,0,0,0-54.45-12.91v-52.82c-10.73-37.37-21.12-74.75-35.28-112.13-14.15,37.38-24.55,74.76-35.27,112.13,0,13.84,0,32.26,0,53.43-49,7-95.25,27.67-127.33,62.74,42.54,1.69,85,.65,127.34-.37V2681c-49,7-95.26,27.67-127.34,62.73,42.53,1.69,85,.66,127.33-.36-.06,38.71,0,100.58,0,162.52-49,7-95.29,27.67-127.38,62.74C1832,2970.27,1874.5,2969.23,1916.81,2968.22Z" transform="translate(-234.92 -104.5)"/><path class="cls-4" d="M2509,1441a117.9,117.9,0,0,0-34.44-24.34,98.4,98.4,0,0,0-83.13,0,114.12,114.12,0,0,0-34.15,24.34,113.64,113.64,0,0,0-22.86,120.84,115.44,115.44,0,0,0,22.86,35.63,111.61,111.61,0,0,0,34.15,24.65,98.49,98.49,0,0,0,83.13,0,115.22,115.22,0,0,0,34.44-24.65,113.26,113.26,0,0,0,23.17-35.63,113.37,113.37,0,0,0,0-85.21A109.12,109.12,0,0,0,2509,1441Z" transform="translate(-234.92 -104.5)"/><path class="cls-4" d="M3178.11,1141.78H726a126.39,126.39,0,0,0-126.39,126.39V1762c0,642.71,176.24,781,699.69,1191.82q65.12,51.1,136.56,107.61c-131.33-329.78-52.16-713.54,237.94-978l228.06-207.91a74.5,74.5,0,0,1,100.37,0l228,207.91c290.1,264.46,369.27,648.22,237.94,978q71.4-56.68,136.9-107.87c523.12-410.55,699.36-548.86,699.36-1191.57V1268.17A126.39,126.39,0,0,0,3178.11,1141.78Zm-2419,594.68c-4.37,0-7.83-1.38-10.41-4.15a14.28,14.28,0,0,1-3.85-10.1V1316A14.24,14.24,0,0,1,748.7,1306c2.58-2.77,6-4.16,10.41-4.16h89.06A14.19,14.19,0,0,1,862.42,1316v296.9a14.29,14.29,0,0,0,3.85,10.1c2.58,2.77,6,4.16,10.41,4.16h178.73a14.19,14.19,0,0,1,14.24,14.26v80.75a14.17,14.17,0,0,1-14.24,14.25Zm513.64,356.24-74.5,72.61a11,11,0,0,0-3.17,9.75l17.59,102.54a11,11,0,0,1-16,11.6l-92.08-48.41a11.05,11.05,0,0,0-10.25,0l-92.08,48.41a11,11,0,0,1-16-11.6l17.59-102.54a11,11,0,0,0-3.17-9.75l-74.5-72.61a11,11,0,0,1,6.11-18.78l102.95-15a11,11,0,0,0,8.29-6l46-93.29a11,11,0,0,1,19.75,0l46,93.29a11,11,0,0,0,8.29,6l103,15A11,11,0,0,1,1272.75,2092.7Zm190.47-695.89a14.2,14.2,0,0,1-14.25,14.25H1264.3a14.19,14.19,0,0,0-14.25,14.24v25a14.17,14.17,0,0,0,14.25,14.24h160.92a14.19,14.19,0,0,1,14.24,14.26v81.94a14.19,14.19,0,0,1-14.24,14.26H1264.3a14.17,14.17,0,0,0-14.25,14.25v22.57A14.19,14.19,0,0,0,1264.3,1626H1449a14.17,14.17,0,0,1,14.25,14.25v82a14.17,14.17,0,0,1-14.25,14.25H1146.73a14.17,14.17,0,0,1-14.25-14.25V1316a14.19,14.19,0,0,1,14.25-14.24H1449a14.19,14.19,0,0,1,14.25,14.24ZM1955,1553a200.31,200.31,0,0,1-23.17,76,210.89,210.89,0,0,1-49,60.56,231.55,231.55,0,0,1-150.53,54.63q-47.53,0-89.08-17.82a237.47,237.47,0,0,1-72.74-48.1,225.14,225.14,0,0,1-49.28-71.24,219.31,219.31,0,0,1,0-174.58,228.81,228.81,0,0,1,49.28-71.56,234.91,234.91,0,0,1,72.74-48.4q41.57-17.81,89.08-17.82,65.31,0,113.7,26.73a217.56,217.56,0,0,1,78.69,73.63,13.91,13.91,0,0,1,1.48,11,14.22,14.22,0,0,1-6.23,9.22l-71.26,45.71a15.23,15.23,0,0,1-10.68,2.08,16.27,16.27,0,0,1-10.1-5.64,157.92,157.92,0,0,0-41.27-36.22q-22.87-13.67-54.33-13.66a99.78,99.78,0,0,0-42.46,9.21,114.14,114.14,0,0,0-34.75,24.64,116.33,116.33,0,0,0-23.45,35.93,109.83,109.83,0,0,0,0,85.21,113.29,113.29,0,0,0,23.45,35.32,116.67,116.67,0,0,0,34.75,24.36,99.78,99.78,0,0,0,42.46,9.2,124.92,124.92,0,0,0,44.54-8.32,72.65,72.65,0,0,0,35-27.32q3-4.73.58-8.6t-8.31-3.86h-68.28a14.2,14.2,0,0,1-14.26-14.26v-70.65a14.19,14.19,0,0,1,14.26-14.25h204.26a15.34,15.34,0,0,1,10.39,3.85,15,15,0,0,1,5.06,10.4,216.1,216.1,0,0,1,1.18,24.63A260.9,260.9,0,0,1,1955,1553Zm187,169.24a13.8,13.8,0,0,1-4.14,10.1,13.61,13.61,0,0,1-10,4.15h-89.23q-6.5,0-10.34-4.15a14.36,14.36,0,0,1-3.83-10.1V1316.64a14.37,14.37,0,0,1,3.83-10.1,13.44,13.44,0,0,1,10.34-4.16h89.23a13.66,13.66,0,0,1,10,4.16,13.81,13.81,0,0,1,4.14,10.1ZM2591.89,1678a229.48,229.48,0,0,1-71.56,48.39,222.7,222.7,0,0,1-174.58,0,225.62,225.62,0,0,1-71.26-48.39,232.2,232.2,0,0,1-48.1-71.55,222.82,222.82,0,0,1,0-174.58,232.2,232.2,0,0,1,48.1-71.55,226.18,226.18,0,0,1,71.26-48.41,222.82,222.82,0,0,1,174.58,0,227.83,227.83,0,0,1,119.94,120,222.7,222.7,0,0,1,0,174.58A229.68,229.68,0,0,1,2591.89,1678ZM2982.7,2092.7l-74.5,72.61a11,11,0,0,0-3.17,9.75l17.59,102.54a11,11,0,0,1-16,11.6l-92.08-48.41a11.05,11.05,0,0,0-10.25,0l-92.08,48.41a11,11,0,0,1-16-11.6l17.59-102.54a11,11,0,0,0-3.17-9.75l-74.5-72.61a11,11,0,0,1,6.11-18.78l102.95-15a11,11,0,0,0,8.29-6l46-93.29a11,11,0,0,1,19.75,0l46,93.29a11.06,11.06,0,0,0,8.29,6l103,15A11,11,0,0,1,2982.7,2092.7Zm151-370.49a14.15,14.15,0,0,1-14.22,14.25H3031.8a26,26,0,0,1-12.44-3.56,30.79,30.79,0,0,1-10.08-8.31l-154.65-217.93c-2.39-3.17-4.85-4.46-7.41-3.86s-3.85,2.88-3.85,6.83v212.58a14.24,14.24,0,0,1-14.34,14.25h-88.92a14.2,14.2,0,0,1-14.32-14.25V1316A14.2,14.2,0,0,1,2740,1301.8h89.08a31.17,31.17,0,0,1,22.57,11.28L3006.06,1531q3.57,4.77,7.42,4.16c2.58-.39,3.87-2.56,3.87-6.53V1316a14.2,14.2,0,0,1,14.24-14.24h87.88a14.2,14.2,0,0,1,14.26,14.24Z" transform="translate(-234.92 -104.5)"/><path class="cls-3" d="M3385.93,542.4c-34.23-16.3-70.5-27.89-107.48-36.26L2856.18,410.6a4096.89,4096.89,0,0,0-1808.26,0L625.65,506.14c-37,8.37-73.25,20-107.48,36.26-65.82,31.34-100.35,67.33-100.35,137.93V1775.75c0,732.05,253.3,930.84,757.93,1326.86,105.65,82.92,225.41,176.91,352.9,284.15l314.46,264.5a169.25,169.25,0,0,0,217.88,0l314.47-264.5c127.49-107.24,247.24-201.23,352.89-284.15,504.63-396,757.93-594.81,757.93-1326.86V680.33C3486.28,609.73,3451.75,573.74,3385.93,542.4Z" transform="translate(-234.92 -104.5)"/><path class="cls-2" d="M3556.87,365.06c-38.31-18.24-78.91-31.22-120.29-40.58L2964,217.55a4585.37,4585.37,0,0,0-2023.83,0L467.53,324.48c-41.39,9.36-82,22.34-120.3,40.58-73.66,35.07-112.31,75.36-112.31,154.38v1226c0,819.32,283.5,1041.81,848.29,1485,118.24,92.8,252.27,198,395,318l351.95,296a189.42,189.42,0,0,0,243.86,0l351.95-296c142.69-120,276.72-225.22,395-318,564.79-443.24,848.29-665.73,848.29-1485v-1226C3669.19,440.42,3630.54,400.13,3556.87,365.06Zm-70.59,1410.69c0,732.05-253.3,930.84-757.93,1326.86-105.65,82.92-225.4,176.91-352.89,284.15L2061,3651.26a169.25,169.25,0,0,1-217.88,0l-314.46-264.5c-127.49-107.24-247.25-201.23-352.9-284.15-504.63-396-757.93-594.81-757.93-1326.86V680.33c0-70.6,34.53-106.59,100.35-137.93,34.23-16.3,70.51-27.89,107.48-36.26l422.27-95.54a4096.89,4096.89,0,0,1,1808.26,0l422.27,95.54c37,8.37,73.25,20,107.48,36.26,65.82,31.34,100.35,67.33,100.35,137.93Z" transform="translate(-234.92 -104.5)"/></svg>