<?xml version="1.0" encoding="UTF-8" standalone="no"?>
<svg
   xmlns:dc="http://purl.org/dc/elements/1.1/"
   xmlns:cc="http://creativecommons.org/ns#"
   xmlns:rdf="http://www.w3.org/1999/02/22-rdf-syntax-ns#"
   xmlns:svg="http://www.w3.org/2000/svg"
   xmlns="http://www.w3.org/2000/svg"
   xmlns:sodipodi="http://sodipodi.sourceforge.net/DTD/sodipodi-0.dtd"
   xmlns:inkscape="http://www.inkscape.org/namespaces/inkscape"
   sodipodi:docname="legends_of_legion.svg"
   id="svg843"
   version="1.1"
   viewBox="0 0 280 280"
   width="280"
   height="280"
   style="clip-rule:evenodd;fill-rule:evenodd"
   inkscape:version="0.92.4 (5da689c313, 2019-01-14)">
  <metadata
     id="metadata849">
    <rdf:RDF>
      <cc:Work
         rdf:about="">
        <dc:format>image/svg+xml</dc:format>
        <dc:type
           rdf:resource="http://purl.org/dc/dcmitype/StillImage" />
        <dc:title></dc:title>
      </cc:Work>
    </rdf:RDF>
  </metadata>
  <defs
     id="defs847" />
  <sodipodi:namedview
     pagecolor="#ffffff"
     bordercolor="#666666"
     borderopacity="1"
     objecttolerance="10"
     gridtolerance="10"
     guidetolerance="10"
     inkscape:pageopacity="0"
     inkscape:pageshadow="2"
     inkscape:window-width="1278"
     inkscape:window-height="1048"
     id="namedview845"
     showgrid="false"
     inkscape:zoom="2.07"
     inkscape:cx="84.329655"
     inkscape:cy="128.86143"
     inkscape:window-x="-7"
     inkscape:window-y="0"
     inkscape:window-maximized="0"
     inkscape:current-layer="svg843" />
  <path
     d="m 233.122,33.869499 c -8.336,6.252 -25.009,14.588 -45.849,9.378 -36.819,-9.031 -47.239,-40.6389995 -47.239,-40.6389995 0,0 -10.49,31.5729995 -47.238,40.6389995 -21.153,5.21 -37.513,-3.195 -46.197,-9.343 H 40 V 204.1025 c 0,4.515 1.042,12.852 8.023,21.535 8.649,10.42 23.237,17.124 43.418,20.041 16.325,2.327 28.135,7.398 36.471,15.492 6.252,5.94 12.157,16.221 12.157,16.221 0,0 6.079,-10.49 12.018,-16.221 8.405,-8.093 20.32,-13.13 36.471,-15.492 20.215,-2.921 34.734,-9.725 43.418,-20.181 6.982,-8.475 8.024,-16.985 8.024,-21.257 V 34.042499 h -6.634"
     id="path833"
     inkscape:connector-curvature="0"
     style="fill:#ffffff" />
  <path
     d="m 233.817,40.468499 c 0,0 -20.042,15.595001 -48.281,8.544001 -32.894,-8.232 -45.849,-32.858 -45.849,-32.858 0,0 -12.782,24.661 -45.849,32.858 -27.787,6.947 -47.933,-8.684 -47.933,-8.684 v 163.599 c 0.003,5.557 2.327,29.177 46.544,35.429 17.402,2.518 30.393,8.093 39.597,17.089 3.362,3.223 5.905,6.495 7.85,9.517 1.956,-3.011 4.515,-6.287 7.85,-9.517 9.343,-8.996 22.334,-14.588 39.597,-17.089 44.112,-6.356 46.196,-29.976 46.544,-35.429 V 40.328499"
     id="path835"
     inkscape:connector-curvature="0"
     style="fill:#013369" />
  <path
     d="m 140.035,249.6735 c 0,0 12.782,-15.769 45.849,-20.875 38.208,-5.87 36.818,-23.724 36.818,-24.627 v -85.794 H 57.019 v 85.794 c 0,0.903 -1.125,18.757 36.819,24.627 33.206,5.14 45.849,20.875 45.849,20.875"
     id="path837"
     inkscape:connector-curvature="0"
     style="fill:#ffffff" />
  <path
     d="m 61.361,100.9065 -7.503,-5.627 h 9.17 l 3.025,-8.684002 3.025,8.684002 h 9.17 l -7.503,5.662 2.758,8.822 -7.468,-5.245 -7.468,5.245 2.758,-8.822 m 32.513,-0.035 -7.503,-5.627 h 9.17 l 3.025,-8.684002 3.025,8.684002 h 9.17 l -7.503,5.662 2.758,8.822 -7.468,-5.245 -7.468,5.245 2.758,-8.822 m -32.441,-29.212001 -7.503,-5.627 h 9.17 l 3.025,-8.684 3.025,8.684 h 9.17 l -7.503,5.662 2.758,8.822001 -7.468,-5.245001 -7.468,5.245001 2.758,-8.822001 m 32.513,-0.035 -7.503,-5.627 h 9.17 l 3.025,-8.684 3.025,8.684 h 9.17 l -7.503,5.662 2.758,8.822 -7.468,-5.245 -7.468,5.245 2.758,-8.822 m 127.511,37.825 -7.468,-5.245 -7.468,5.245 2.758,-8.822 -7.503,-5.661999 h 9.17 l 3.025,-8.684002 3.025,8.684002 h 9.17 l -7.503,5.661999 2.761,8.822 m -32.617,0 -7.468,-5.245 -7.468,5.245 2.758,-8.822 -7.503,-5.661999 h 9.17 l 3.026,-8.684002 3.029,8.684002 h 9.17 l -7.503,5.661999 2.761,8.822 m 32.678,-29.176 -7.468,-5.245 -7.468,5.245 2.758,-8.822 -7.503,-5.662 h 9.17 l 3.025,-8.684 3.025,8.684 h 9.17 l -7.503,5.662 2.761,8.822 m -32.617,0 -7.468,-5.245 -7.468,5.245 2.758,-8.822 -7.503,-5.662 h 9.17 l 3.026,-8.684 3.029,8.684 h 9.17 l -7.503,5.662 2.761,8.822 m -41.653,-15.284 c -3.338,-2.751 -7.086,-4.515 -11.045,-5.384 0.962,-0.91 1.948,-1.692 2.813,-2.414 4.967,1.194999 8.302,3.421 10.594,5.313999 -0.813,0.833 -1.601,1.646 -2.348,2.476 l -0.014,0.007 z m -4.828,5.801 c -3.182,-2.671 -7.051,-4.654 -11.428,-5.557 0.67,-0.865 1.455,-1.786 2.209,-2.64 3.349,0.594 7.642,2.358 11.393,5.453 -0.764,0.917 -1.48,1.848 -2.153,2.733 l -0.021,0.01 z m -4.342,6.079 c -3.432,-2.859 -7.433,-4.620001 -11.358,-5.349001 0,0 1.205,-1.965999 1.889,-2.983999 4.794,0.952 8.684,3.194999 11.428,5.488 -0.701,1 -1.365,1.959 -1.959,2.840999 v 0.003 z m 22.681,-29.038 c 0,0 -3.89,2.025 -9.309,7.364 1.223,0.691 2.598,1.657 3.386,2.313 -0.82,0.726 -1.657,1.511 -2.435,2.247 -3.543,-2.907 -7.19,-4.377 -10.038,-5.071 0.945,-0.677 1.948,-1.344 2.939,-1.99 1.528,0.389 3.008,0.99 3.008,0.99 6.113,-4.655 11.428,-6.669 11.428,-6.669 0,0 -0.615,-0.301 -2.251,-0.279 -24.071,0.311 -46.197,18.27 -42.029,48.975001 0.448,3.261 1.716,9.203999 3.328,11.809999 0.535,-5.106 2.459,-16.429999 8.162,-28.586 -1.983,-0.712 -3.612,-1.004 -3.612,-1.004 0.583,-1.223 1.393,-2.782 1.393,-2.782 4.238,0.796 7.954,2.563 11.184,5.141 -0.774,1.254 -1.299,2.07 -1.671,2.716 -1.132,-0.893 -2.278,-1.66 -3.543,-2.362 -6.426,11.219001 -9.378,21.813 -10.594,27.336 0.067,0.342 0.764,0.517 1.327,0.444 26.363,-3.414 38.555,-16.880999 42.376,-31.434 2.47,-9.552 1.661,-19.556 -1.646,-27.718 -0.232,-0.573 -0.684,-1.525 -1.452,-1.455"
     id="path841"
     inkscape:connector-curvature="0"
     style="fill:#ffffff" />
  <g
     aria-label="LOL"
     transform="matrix(0.83970105,0,0,1.1909,262.06023,-129.68638)"
     style="font-style:normal;font-variant:normal;font-weight:normal;font-stretch:normal;font-size:93.88204193px;line-height:1.25;font-family:Aachen;-inkscape-font-specification:Aachen;letter-spacing:0px;word-spacing:0px;fill:#d50a0a;fill-opacity:1;stroke:none;stroke-width:2.34705114"
     id="text853">
    <path
       d="m -186.41965,295.73114 v -40.69385 h -19.05443 v 8.57224 c 0,1.43635 -0.54352,2.59765 -1.63056,3.4839 -1.08705,0.8557 -2.45364,1.28355 -4.09974,1.28355 v -41.3026 c 0,-1.25298 0.6367,-1.87948 1.91011,-1.87948 v -11.27684 h -24.83132 v 11.27684 c 1.2734,0 1.9101,0.6265 1.9101,1.87948 v 41.3026 c 0,1.25298 -0.6367,1.87947 -1.9101,1.87947 v 11.27685 z"
       style="stroke-width:2.36609674"
       id="path868"
       inkscape:connector-curvature="0"
       sodipodi:nodetypes="cccsccsccccssccc" />
    <path
       d="m -143.20324,211.61428 c 6.33594,0 11.77119,1.87812 16.30575,5.63434 4.44137,3.71751 6.66206,8.19013 6.66206,13.41787 0,1e-5 0,52.33548 0,52.33546 0,5.22775 -2.22069,9.71972 -6.66206,13.47594 -4.47243,3.71751 -9.90768,5.57626 -16.30575,5.57626 -1.14605,0 -4.58423,0 -5.7303,0 -6.367,0 -11.77119,-1.85875 -16.21256,-5.57626 -4.47243,-3.75622 -6.70865,-8.24819 -6.70865,-13.47594 0,2e-5 0,-52.33545 0,-52.33546 0,-5.22774 2.23622,-9.70036 6.70865,-13.41787 4.44137,-3.75622 9.84556,-5.63434 16.21256,-5.63434 0,0 5.7303,0 5.7303,0 z m -5.7303,21.43372 c 0,15.85748 0,31.71495 0,47.57242 0,0.65832 0.27952,1.21982 0.83858,1.6845 0.49694,0.46469 1.1647,0.69703 2.00328,0.69703 0.77646,0 1.44423,-0.23234 2.00328,-0.69703 0.59011,-0.46468 0.88516,-1.02618 0.88516,-1.6845 0,-15.85747 0,-31.71494 0,-47.57242 0,-0.61957 -0.29505,-1.18107 -0.88516,-1.68448 -0.55905,-0.46468 -1.22682,-0.69703 -2.00328,-0.69703 -0.7454,0 -1.41317,0.23235 -2.00328,0.69703 -0.55906,0.50341 -0.83858,1.06491 -0.83858,1.68448 z"
       style="stroke-width:2.66343355"
       id="path870"
       inkscape:connector-curvature="0" />
    <path
       d="m -56.524588,281.53287 v -26.49601 h -19.054423 v 8.57224 c 0,1.43635 -0.543525,2.59765 -1.630574,3.4839 -1.08705,0.8557 -2.453626,1.28355 -4.099729,1.28355 v -41.3026 c 0,-1.25299 0.6367,-1.87948 1.910101,-1.87948 v -11.27684 h -24.831317 v 11.27684 c 1.2734,0 1.91011,0.62649 1.91011,1.87948 v 41.3026 c 0,1.25298 -0.63671,1.87947 -1.91011,1.87947 v 25.47469 z"
       style="stroke-width:2.36609674"
       id="path872"
       inkscape:connector-curvature="0"
       sodipodi:nodetypes="cccsccsccccssccc" />
  </g>
</svg>
