<svg id="Layer_1" data-name="Layer 1" xmlns="http://www.w3.org/2000/svg" viewBox="0 0 3484.18503 3806.875"><defs><style>.cls-1{fill:#fffffd;}.cls-2{fill:#273069;}.cls-3{fill:none;}.cls-4{fill:#c01e58;}</style></defs><path class="cls-1" d="M2000,3823.4375a254.8913,254.8913,0,0,1-163.83447-59.74121l-324.27344-272.75293c-130.32764-109.627-253.1665-206.03613-361.54492-291.09668l-.25635-.20117c-132.11133-103.67969-246.207-193.21973-345.96191-283.55469-111.70606-101.15625-193.45118-193.10547-257.25684-289.37012-72.51025-109.39648-124.08691-228.53125-157.67676-364.21093-34.5122-139.40137-51.28808-301.00782-51.28808-494.0542V638.86621c0-53.6875,14.08789-97.95264,43.06933-135.32519,24.04151-31.00293,57.73047-56.15088,106.01905-79.14307,38.56445-18.36035,80.29394-32.48584,127.5747-43.18311l435.4419-98.52148a4304.78041,4304.78041,0,0,1,1899.97509,0l435.44239,98.52148c47.27929,10.69727,89.00879,24.82227,127.57226,43.18262,48.29,22.99268,81.97852,48.14063,106.02149,79.14356,28.98047,37.37255,43.06836,81.63769,43.06836,135.32519V1768.45557c0,193.04687-16.77637,354.65283-51.28809,494.0542-33.58984,135.67968-85.166,254.81445-157.67578,364.21191-63.80566,96.26367-145.55176,188.21289-257.25684,289.36914-99.75488,90.335-213.85058,179.876-345.96191,283.55566l-.208.16211c-108.39258,85.07032-231.24707,181.49121-361.59277,291.13282L2163.833,3763.69629A254.88986,254.88986,0,0,1,2000,3823.4375Z" transform="translate(-257.90726 -96.5625)"/><path class="cls-1" d="M1999.99976,256.5625A4224.68949,4224.68949,0,0,1,2932.333,360.72083l435.44262,98.52084c38.12989,8.6275,75.53907,20.58166,110.83667,37.38751,67.87159,32.315,103.48,69.43668,103.48,142.23746V1768.45581c0,754.88745-261.20166,959.875-781.575,1368.25757-108.94751,85.50659-232.43847,182.4209-363.906,293.00757l-324.2732,272.75244a174.51824,174.51824,0,0,1-224.67675,0L1563.38806,3429.721c-131.46753-110.58667-254.95825-207.501-363.90576-293.00757-520.37335-408.38257-781.575-613.37012-781.575-1368.25757V638.86664c0-72.80078,35.60833-109.92249,103.48-142.23746,35.29748-16.80585,72.70666-28.76,110.83667-37.38751l435.44244-98.52084A4224.68978,4224.68978,0,0,1,1999.99976,256.5625m0-160A4391.62354,4391.62354,0,0,0,1032.3573,204.66583l-435.44171,98.52c-53.12915,12.02167-100.33249,28.04334-144.30918,48.98169-60.005,28.57-102.85415,61.09165-134.84832,102.34915-39.71418,51.2125-59.85083,113.2367-59.85083,184.35V1768.45581c0,199.61169,17.54333,367.50659,53.6325,513.28,35.82834,144.721,90.99418,272.02417,168.65,389.18408,67.58917,101.97168,153.45917,198.71924,270.24084,304.471,101.84583,92.22827,216.97,182.57568,350.27167,287.18921l.29334.23c107.86669,84.65918,230.12585,180.61328,359.39746,289.35327l324.27746,272.75488a334.41905,334.41905,0,0,0,430.66-.00146l324.27172-272.751c129.27588-108.74243,251.53492-204.69653,359.40162-289.35571l.29663-.23267c133.29834-104.61084,248.4226-194.95825,350.26831-287.18652,116.78174-105.75171,202.65185-202.49927,270.241-304.471,77.65577-117.15991,132.82154-244.46313,168.64991-389.18408,36.08911-145.77344,53.63257-313.66834,53.63257-513.28V638.86664c0-71.11328-20.13672-133.13748-59.85083-184.35-31.99415-41.2575-74.84327-73.77917-134.84839-102.34915-43.97657-20.93835-91.17994-36.96-144.30738-48.98083L2967.64136,204.665A4391.659,4391.659,0,0,0,1999.99976,96.5625Z" transform="translate(-257.90726 -96.5625)"/><path class="cls-2" d="M969.55292,1011.4386q.21715,28.80231.43707,57.60449a10.72383,10.72383,0,0,1-2.4668,7.2157,7.72134,7.72134,0,0,1-6.10174,2.98315q-89.88053.34735-179.749.75037a8.14233,8.14233,0,0,1-6.30377-2.49939,8.59241,8.59241,0,0,1-2.34082-6.10889q.00018-123.22338.00012-246.44629a11.09361,11.09361,0,0,1,2.30536-6.72351,10.89505,10.89505,0,0,1,6.20691-4.14911q26.60615-6.93163,53.26685-13.58282a6.51482,6.51482,0,0,1,6.053,1.18091,7.32306,7.32306,0,0,1,2.51306,5.92261q.34451,96.08907.68872,192.1817a9.05954,9.05954,0,0,0,2.35681,6.37774,7.4403,7.4403,0,0,0,6.2937,2.29047q54.04183-3.482,108.13678-6.65808a7.34865,7.34865,0,0,1,6.13287,2.60193A10.31738,10.31738,0,0,1,969.55292,1011.4386Z" transform="translate(-257.90726 -96.5625)"/><path class="cls-2" d="M1063.71533,842.75891q.08716,9.46125.17432,18.92279a10.69593,10.69593,0,0,0,2.58313,7.33545,6.70308,6.70308,0,0,0,6.1322,2.38757q48.64691-6.12963,97.37976-11.64428a6.68006,6.68006,0,0,1,6.14758,2.66418,12.1561,12.1561,0,0,1,2.59937,7.87586q.33123,33.09567.66235,66.19287a13.86377,13.86377,0,0,1-2.43762,8.3294,7.99077,7.99077,0,0,1-6.08472,3.77027q-48.767,3.33544-97.48254,7.046a8.21427,8.21427,0,0,0-6.08252,3.62549,12.58027,12.58027,0,0,0-2.44592,7.848q.07782,8.56054.15759,17.12207a11.404,11.404,0,0,0,2.58862,7.52026,7.22425,7.22425,0,0,0,6.1449,2.83264q55.942-2.97234,111.93091-5.60168a7.154,7.154,0,0,1,6.15478,3.09094,12.99718,12.99718,0,0,1,2.60352,8.09906q.33417,33.33087.66907,66.6651a13.29751,13.29751,0,0,1-2.43982,8.22425,7.3845,7.3845,0,0,1-6.09094,3.39611q-91.69189.28107-183.37342.62232a7.74693,7.74693,0,0,1-6.14892-2.99719,11.04587,11.04587,0,0,1-2.58069-7.30762q-1.1933-147.30405-2.38672-294.58655a13.2433,13.2433,0,0,1,2.44275-7.85681,9.87941,9.87941,0,0,1,6.05255-4.32813q90.98594-19.533,182.46576-35.65313a6.27449,6.27449,0,0,1,6.14392,2.30511,11.6751,11.6751,0,0,1,2.599,7.776q.33087,32.84519.65955,65.69043a14.75966,14.75966,0,0,1-2.43555,8.54627,8.64552,8.64552,0,0,1-6.08,4.184q-55.92022,7.40917-111.71191,15.79113a8.99119,8.99119,0,0,0-6.06983,4.07728A13.40625,13.40625,0,0,0,1063.71533,842.75891Z" transform="translate(-257.90726 -96.5625)"/><path class="cls-2" d="M1364.98877,1084.71484a104.38012,104.38012,0,0,1-54.1936-15.24572,157.56434,157.56434,0,0,1-44.54-40.14966q-19.16839-25.00782-30.494-58.38227a227.89587,227.89587,0,0,1-11.70838-71.47412,246.71472,246.71472,0,0,1,39.53736-136.87078c12.43371-18.86353,27.00427-34.69251,43.72619-47.31287,16.71766-12.61743,34.69861-20.44922,53.94751-23.14966,26.46058-3.719,49.58924,1.08716,69.36219,14.70313q29.65265,20.40883,48.44641,61.34417a17.6972,17.6972,0,0,1,.98645,9.88092q-.85822,5.73231-3.72327,8.66516-21.5017,22.53983-42.97619,44.699a7.32472,7.32472,0,0,1-6.48047,2.36945q-3.62-.50987-6.18055-4.53693-11.37194-19.182-25.37475-29.91095-14.00721-10.73255-33.125-8.68378c-9.14136.96082-17.70972,4.56519-25.7085,10.72614a88.5624,88.5624,0,0,0-20.88232,23.42444,122.45744,122.45744,0,0,0-13.93372,32.11535,129.67347,129.67347,0,0,0-4.86755,36.63422,121.79245,121.79245,0,0,0,5.58411,36.08356,102.48131,102.48131,0,0,0,14.53112,29.44738,74.82125,74.82125,0,0,0,21.28614,20.04676,45.283,45.283,0,0,0,25.84594,7.03705,56.53528,56.53528,0,0,0,26.9668-8.26276q13.26507-7.80706,21.04993-25.01086a9.56713,9.56713,0,0,0,.29126-7.66193,4.88644,4.88644,0,0,0-5.08008-3.19171q-20.73505.97255-41.46314,2.01-3.60735.18027-6.16308-3.31659a14.48025,14.48025,0,0,1-2.60694-8.66486q-.29332-30.78588-.58715-61.57043a15.841,15.841,0,0,1,2.44018-8.999c1.657-2.546,3.68921-3.92865,6.096-4.12335q62.02789-5.01956,124.1394-9.07751a7.37662,7.37662,0,0,1,6.34778,3.104q2.73834,3.35019,3.14685,9.27521.79358,9.16287.90528,22.41711.10766,13.26837-.85962,27.38318c-1.48267,24.9693-5.98438,48.24274-13.50025,69.66382q-11.28,32.147-29.279,55.40173-18.00567,23.2533-41.30566,36.24A100.0151,100.0151,0,0,1,1364.98877,1084.71484Z" transform="translate(-257.90726 -96.5625)"/><path class="cls-2" d="M1610.52246,786.27332q.07764,11.671.1554,23.34118a16.32713,16.32713,0,0,0,2.59387,9.31043q2.55158,3.76153,6.17224,3.56787,48.99353-2.57,98.01843-4.48432,3.61377-.14062,6.17017,3.72968a17.17892,17.17892,0,0,1,2.57934,9.5434q.191,39.12039.38013,78.2409a17.81,17.81,0,0,1-2.48169,9.698q-2.51349,4.03253-6.12121,4.111-48.94245,1.1576-97.86866,2.71289c-2.40722.077-4.44922,1.44672-6.11242,4.08881a17.27987,17.27987,0,0,0-2.46411,9.52765q.06994,10.5596.1405,21.1192a16.73323,16.73323,0,0,0,2.58874,9.38873q2.54755,3.83762,6.15992,3.755,56.11047-1.24512,112.23706-2.12671,3.60406-.05687,6.15466,3.87988a17.55738,17.55738,0,0,1,2.57141,9.62054q.18036,39.19867.36218,78.39814a17.637,17.637,0,0,1-2.47839,9.66162q-2.50579,3.98255-6.10718,3.98144-91.70526.09431-183.4082.2522-3.6059.00513-6.15466-3.81995a16.55627,16.55627,0,0,1-2.59339-9.29016q-1.43023-187.03317-2.86145-374.05169a17.61425,17.61425,0,0,1,2.46228-9.54682c1.666-2.71374,3.71021-4.20105,6.12427-4.43866q92.12292-9.0519,184.45276-14.458,3.62145-.21231,6.18493,3.61847a16.99006,16.99006,0,0,1,2.58411,9.51429q.17817,38.62985.35693,77.26007a18.1033,18.1033,0,0,1-2.49108,9.76758q-2.51991,4.09011-6.1377,4.24371-56.31006,2.48364-112.57495,5.99756c-2.41321.15088-4.45789,1.58581-6.12512,4.27929A17.65183,17.65183,0,0,0,1610.52246,786.27332Z" transform="translate(-257.90726 -96.5625)"/><path class="cls-2" d="M2035.75171,668.06207q-.122,197.63571-.24365,395.27167a18.21588,18.21588,0,0,1-2.52307,9.82349q-2.51971,4.049-6.11731,4.04455-26.61275-.00293-53.22413.00025-3.59637.00018-7.55212-3.466a24.41738,24.41738,0,0,1-6.12158-8.08837q-47.01727-106.00526-94.39148-211.06788-2.18224-4.56289-4.52588-3.66516c-1.56555.6015-2.3385,2.82428-2.32874,6.6529q.26643,102.93484.53187,205.87066a17.94858,17.94858,0,0,1-2.51392,9.77808q-2.52284,4.0329-6.14343,4.02807-26.9817.01521-53.96119.03675-3.62182.00109-6.17456-3.99524a17.80766,17.80766,0,0,1-2.57116-9.70923q-.74817-195.391-1.49866-390.7774a18.29424,18.29424,0,0,1,2.50269-9.82868c1.67956-2.73828,3.73254-4.172,6.15393-4.28q27.217-1.21664,54.44226-2.11346,3.62512-.11911,7.63159,2.91736a20.74281,20.74281,0,0,1,6.19043,7.57812q47.44683,104.1828,94.55176,210.22376,2.1729,4.62176,4.52392,4.02551,2.34723-.57943,2.34619-6.36578-.069-103.43445-.13977-206.86969a18.20811,18.20811,0,0,1,2.53565-9.843c1.68762-2.70349,3.74792-4.0719,6.17041-4.08722q26.87164-.16571,53.74316-.019c2.41675.01306,4.47315,1.3811,6.1709,4.083A18.23952,18.23952,0,0,1,2035.75171,668.06207Z" transform="translate(-257.90726 -96.5625)"/><path class="cls-2" d="M2090.29321,1063.37024q.319-197.29888.63623-394.59717a17.82146,17.82146,0,0,1,2.55689-9.758c1.6914-2.65314,3.76074-3.96222,6.17871-3.91114q49.55933,1.04865,99.10059,3.15906c37.9812,1.62512,68.9934,20.94592,92.97436,56.96491q19.42456,29.3801,29.33887,68.73779,9.91186,39.36694,9.63427,87.65784-.27612,48.36052-10.60693,87.21527-10.32825,38.93783-29.94556,67.02948-18.16626,25.305-41.46264,38.3601a103.35527,103.35527,0,0,1-51.40625,13.04541q-49.18615-.037-98.37329-.05517-3.60535-.00092-6.11914-4.0398A18.10174,18.10174,0,0,1,2090.29321,1063.37024Zm80.29517-91.70715q13.53882.13072,27.07373.28515a60.29107,60.29107,0,0,0,20.95288-3.7492q10.84461-3.84825,19.55762-14.83728,8.71362-10.97416,14.40112-31.0514,5.68872-20.06944,5.83862-52.46051.14759-32.40024-5.36987-52.77441-5.52393-20.37661-14.34351-31.82752-8.82935-11.43429-19.49438-15.81591a59.98753,59.98753,0,0,0-20.81323-4.69989q-13.58423-.43452-27.17066-.80951-3.62511-.0997-6.17114,3.85217a17.65919,17.65919,0,0,0-2.5647,9.69672q-.26147,90.16269-.52124,180.32562a18.03642,18.03642,0,0,0,2.49927,9.78735Q2166.97364,971.63348,2170.58838,971.66309Z" transform="translate(-257.90726 -96.5625)"/><path class="cls-2" d="M2394.97266,938.08075q19.3623,20.04053,38.40405,31.52118c12.6897,7.68524,24.57153,11.61688,35.63135,11.90192q15.86573.4086,24.2207-6.145,8.3485-6.541,8.46094-20.06488.05823-7.03071-3.51831-11.23627a29.596,29.596,0,0,0-9.50733-7.14856,67.39071,67.39071,0,0,0-13.85888-4.89154,148.4255,148.4255,0,0,1-16.207-4.997q-7.927-2.486-18.55126-5.92377a120.59232,120.59232,0,0,1-21.7793-9.65332,138.27153,138.27153,0,0,1-22.10938-15.53967,94.06081,94.06081,0,0,1-19.53882-23.6095q-8.5825-14.289-13.70507-33.83038-5.12952-19.52756-4.96289-45.84546.23766-38.61237,10.1687-63.13715,9.93164-24.47342,25.0625-38.005a73.974,73.974,0,0,1,33.64062-17.6117,112.78346,112.78346,0,0,1,35.88526-2.32031,118.61487,118.61487,0,0,1,54.34521,19.03162c15.9585,10.56585,31.21143,25.061,45.75562,43.31152a17.75954,17.75954,0,0,1,3.17212,9.3902,17.13854,17.13854,0,0,1-1.89087,9.38861q-14.34742,28.099-28.68579,56.76617-2.20312,4.12785-5.82374,4.91724-3.62071.805-6.48315-2.65179c-12.18408-12.4289-23.561-21.55841-34.12231-27.27881q-15.85035-8.58216-29.22315-9.61219-3.98255-.29955-9.22241-.413a29.18033,29.18033,0,0,0-9.96069,1.47461,15.88607,15.88607,0,0,0-7.82007,5.785q-3.108,4.2042-3.16114,11.91925-.05638,7.72915,7.492,14.264a86.75274,86.75274,0,0,0,17.273,11.543,135.38878,135.38878,0,0,0,18.73681,8.04327q9.00952,3.03837,11.53833,3.74848a213.282,213.282,0,0,1,28.44312,12.99127,106.75084,106.75084,0,0,1,28.88232,23.39929q13.41176,15.0585,22.41333,38.1767c6,15.41559,8.897,34.37347,8.6958,56.99261-.18994,21.21295-2.876,39.42035-8.05908,54.73383q-7.77282,22.96527-21.418,37.824a84.77425,84.77425,0,0,1-32.61987,22.136,116.89646,116.89646,0,0,1-42.03394,7.28979,124.93624,124.93624,0,0,1-34.915-4.68017,127.82408,127.82408,0,0,1-30.17774-13.0575,144.5616,144.5616,0,0,1-25.99975-19.8789,219.40809,219.40809,0,0,1-22.02051-24.50519q-2.87-3.391-3.18872-9.277a20.43542,20.43542,0,0,1,1.866-10.332q14.07642-30.85868,28.17749-61.37134,2.19471-4.38858,5.812-5.39545A6.30815,6.30815,0,0,1,2394.97266,938.08075Z" transform="translate(-257.90726 -96.5625)"/><path class="cls-2" d="M2722.66553,894.29572c.262-26.126,4.10864-50.454,11.54028-72.6568q11.14856-33.30606,29.7644-56.189,18.61085-22.8155,43.56885-33.12781c16.63355-6.88177,34.28638-8.41461,52.95532-4.90673,18.66822,3.506,36.19751,11.62762,52.60083,23.93737a193.98455,193.98455,0,0,1,42.84717,44.81946,224.15665,224.15665,0,0,1,28.74,58.05945,201.95707,201.95707,0,0,1,10.21607,65.56811,182.92176,182.92176,0,0,1-11.32056,63.25422,176.45,176.45,0,0,1-29.78784,51.89422,149.76639,149.76639,0,0,1-43.73242,36.02832,109.99093,109.99093,0,0,1-53.09375,13.73828,101.408,101.408,0,0,1-52.81812-14.52258q-24.70935-14.6911-42.82812-40.54285-18.11389-25.87911-28.57886-60.97137A250.40862,250.40862,0,0,1,2722.66553,894.29572Zm71.29956,5.91613a122.44772,122.44772,0,0,0,4.68774,35.40454,107.10481,107.10481,0,0,0,13.56909,29.93433,75.35248,75.35248,0,0,0,20.50049,21.03033,48.11419,48.11419,0,0,0,25.12622,8.56757,46.85374,46.85374,0,0,0,25.26465-6.00922,70.447,70.447,0,0,0,21.0542-17.97656,87.22783,87.22783,0,0,0,14.28589-26.45465,101.79109,101.79109,0,0,0,5.34033-32.32886,111.2135,111.2135,0,0,0-4.72266-33.11041,103.9433,103.9433,0,0,0-13.74511-29.236,92.82731,92.82731,0,0,0-20.64649-21.80445,53.85306,53.85306,0,0,0-25.0747-10.787,42.71857,42.71857,0,0,0-25.23267,3.92144,60.41677,60.41677,0,0,0-20.87476,17.07111q-8.94286,11.24451-14.14428,27.49353A115.50466,115.50466,0,0,0,2793.96509,900.21185Z" transform="translate(-257.90726 -96.5625)"/><path class="cls-2" d="M3102.83472,869.08228q-.05091,8.36444-.09619,16.73016a11.13129,11.13129,0,0,0,2.46606,7.1499,9.286,9.286,0,0,0,6.06616,3.68854q48.29187,7.2074,96.47681,14.99811a9.83872,9.83872,0,0,1,6.06445,3.546,10.02454,10.02454,0,0,1,2.49365,6.60968q-.01977,25.56829-.0415,51.13739a7.74333,7.74333,0,0,1-2.51245,5.95977,7.527,7.527,0,0,1-6.093,1.9729q-48.36474-4.67367-96.79761-9.00018a7.24879,7.24879,0,0,0-6.115,2.27167,9.2016,9.2016,0,0,0-2.55175,6.6311q-.25306,44.5156-.5105,89.0318a9.92049,9.92049,0,0,1-2.54883,6.833,7.87294,7.87294,0,0,1-6.10645,2.8009q-27.06115-.1093-54.12524-.21362a7.65733,7.65733,0,0,1-6.073-2.98987,10.77253,10.77253,0,0,1-2.44922-7.23181q1.11219-145.18753,2.22437-290.35413a8.963,8.963,0,0,1,2.53833-6.67187,6.2698,6.2698,0,0,1,6.06567-1.62409q90.72071,20.20414,180.86231,43.70765a11.15,11.15,0,0,1,6.03,4.11963,10.88515,10.88515,0,0,1,2.48217,6.79779q-.00146,24.81564,0,49.63134a6.86929,6.86929,0,0,1-8.54565,7.02253q-55.196-10.7515-110.57373-20.59675a6.72579,6.72579,0,0,0-6.08911,1.706A8.318,8.318,0,0,0,3102.83472,869.08228Z" transform="translate(-257.90726 -96.5625)"/><path class="cls-3" d="M2943.96939,2071.09671l-94.85548-13.78294a10.14578,10.14578,0,0,1-7.63864-5.55065l-42.42111-85.95348a10.1455,10.1455,0,0,0-18.19546,0l-42.42018,85.95348a10.14736,10.14736,0,0,1-7.63864,5.55065l-94.85548,13.78294a10.14562,10.14562,0,0,0-5.623,17.305l68.6383,66.90557a10.14577,10.14577,0,0,1,2.91817,8.97992l-16.20393,94.47146a10.1455,10.1455,0,0,0,14.72073,10.695l84.8413-44.60372a10.14569,10.14569,0,0,1,9.44186,0l84.84131,44.60372a10.14474,10.14474,0,0,0,14.7198-10.695l-16.203-94.47146a10.14578,10.14578,0,0,1,2.91818-8.97992l68.63737-66.90557A10.14512,10.14512,0,0,0,2943.96939,2071.09671Z" transform="translate(-257.90726 -96.5625)"/><path class="cls-3" d="M1368.49426,2071.09671l-94.85548-13.78294a10.14734,10.14734,0,0,1-7.63864-5.55065l-42.42112-85.95348a10.14475,10.14475,0,0,0-18.19452,0l-42.42111,85.95348a10.14578,10.14578,0,0,1-7.63864,5.55065l-94.85548,13.78294a10.14512,10.14512,0,0,0-5.62208,17.305l68.63737,66.90557a10.14577,10.14577,0,0,1,2.91817,8.97992l-16.203,94.47146a10.14473,10.14473,0,0,0,14.7198,10.695l84.8413-44.60372a10.14569,10.14569,0,0,1,9.44186,0l84.84131,44.60372a10.1455,10.1455,0,0,0,14.72072-10.695l-16.20393-94.47146a10.14578,10.14578,0,0,1,2.91818-8.97992l68.63829-66.90557A10.14561,10.14561,0,0,0,1368.49426,2071.09671Z" transform="translate(-257.90726 -96.5625)"/><path class="cls-4" d="M1967.52929,2895.06784c-.03061,39.40648-.12522,75.01357-.35619,98.76617,9.10607,34.13131,20.02,70.00463,32.8262,103.31317,12.80528-33.30112,23.72385-69.17629,32.82621-103.3141-.243-24.26647-.34506-60.20286-.37845-99.818,13.0687-.04082,26.117.02319,39.11243.40628,24.49466-.35434,48.763,2.05367,78.26752.98231-17.15841-20.97542-40.78764-37.16358-67.156-46.46538a229.08982,229.08982,0,0,0-50.23321-11.90088c.02041-57.24666.10667-114.35789.06679-150.234,13.04922-.04081,26.078.02412,39.05492.40721,24.49466-.35433,48.763,2.05274,78.26752.98138-17.15841-20.97448-40.78764-37.16265-67.156-46.46537a229.09322,229.09322,0,0,0-50.17013-11.89346V2479.59266c13.05108-.04082,26.08082.02319,39.05863.40721,24.49466-.35527,48.763,2.05273,78.26752.98138-17.15841-20.97542-40.78764-37.16358-67.156-46.46538a229.09522,229.09522,0,0,0-50.17013-11.89438c0-19.35493,0-36.134.00092-48.66653-9.88338-34.43834-19.4616-68.87576-32.50248-103.31317-13.04087,34.43741-22.61816,68.87483-32.50155,103.31317-.00093,12.75147-.00093,29.71973-.00093,49.22864-45.12408,6.43-87.766,25.49274-117.3243,57.79765,39.19406,1.55648,78.35565.60107,117.32523-.33579.00093,50.16921.00279,105.74159.00186,149.74887-45.126,6.43-87.76783,25.49181-117.32709,57.79764,39.1922,1.55741,78.35194.60108,117.31874-.33578-.05287,35.66924.025,92.67288.04638,149.74423-45.13986,6.42443-87.79751,25.4881-117.36512,57.80321C1889.37771,2896.961,1928.5495,2896.0047,1967.52929,2895.06784Z" transform="translate(-257.90726 -96.5625)"/><path class="cls-4" d="M2513.18632,1487.99166a108.65742,108.65742,0,0,0-31.73073-22.42523,90.63277,90.63277,0,0,0-76.596,0,105.13616,105.13616,0,0,0-31.46359,22.42523,104.69993,104.69993,0,0,0-21.05982,111.33954,106.50251,106.50251,0,0,0,21.05982,32.829,102.92046,102.92046,0,0,0,31.46359,22.70721,90.77663,90.77663,0,0,0,76.596,0,106.29112,106.29112,0,0,0,31.73073-22.70721,104.3639,104.3639,0,0,0,21.34181-32.829,104.43861,104.43861,0,0,0,0-78.51055A100.48037,100.48037,0,0,0,2513.18632,1487.99166Z" transform="translate(-257.90726 -96.5625)"/><path class="cls-4" d="M3129.63238,1212.26971H870.37336a116.44668,116.44668,0,0,0-116.44681,116.44774v455.03193c0,592.16846,162.37882,719.596,644.66219,1098.094q59.99184,47.0799,125.82281,99.14647c-120.9966-303.84994-48.0534-657.42757,219.22755-901.09321l210.12148-191.55684a68.63333,68.63333,0,0,1,92.47716,0l210.12333,191.55684c267.28374,243.66749,340.22694,597.24976,219.22478,901.10063q65.78-52.22241,126.12891-99.39135c481.98654-378.26059,644.36536-505.68812,644.36536-1097.85658V1328.71745A116.44747,116.44747,0,0,0,3129.63238,1212.26971ZM900.8704,1760.18137a12.45493,12.45493,0,0,1-9.58749-3.82906,13.15286,13.15286,0,0,1-3.54707-9.3055V1372.82306a13.14221,13.14221,0,0,1,3.54707-9.29067,12.455,12.455,0,0,1,9.58749-3.82906H982.928a13.07361,13.07361,0,0,1,13.13457,13.11973v273.55511a13.15286,13.15286,0,0,0,3.54707,9.3055,12.4549,12.4549,0,0,0,9.58749,3.82906h164.67923a13.07361,13.07361,0,0,1,13.11972,13.13457v74.39951a13.07361,13.07361,0,0,1-13.11972,13.13456Zm473.24686,328.22032-68.63829,66.90557a10.14578,10.14578,0,0,0-2.91818,8.97992l16.20393,94.47146a10.1455,10.1455,0,0,1-14.72072,10.695l-84.84131-44.60372a10.14569,10.14569,0,0,0-9.44186,0l-84.8413,44.60372a10.14473,10.14473,0,0,1-14.7198-10.695l16.203-94.47146a10.14577,10.14577,0,0,0-2.91817-8.97992l-68.63737-66.90557a10.14512,10.14512,0,0,1,5.62208-17.305l94.85548-13.78294a10.14578,10.14578,0,0,0,7.63864-5.55065l42.42111-85.95348a10.14475,10.14475,0,0,1,18.19452,0l42.42112,85.95348a10.14734,10.14734,0,0,0,7.63864,5.55065l94.85548,13.78294A10.14561,10.14561,0,0,1,1374.11726,2088.40169Zm175.4967-641.16428a13.09872,13.09872,0,0,1-13.13457,13.13456H1366.33856a13.07359,13.07359,0,0,0-13.13456,13.11972v22.9892a13.07359,13.07359,0,0,0,13.13456,13.11972h148.26473a13.07361,13.07361,0,0,1,13.11973,13.13457V1598.233a13.07361,13.07361,0,0,1-13.11973,13.13456H1366.33856a13.0737,13.0737,0,0,0-13.13456,13.13456v20.79268a13.07359,13.07359,0,0,0,13.13456,13.11973h170.14083A13.07371,13.07371,0,0,1,1549.614,1671.549v75.49777a13.07371,13.07371,0,0,1-13.13457,13.13456H1258.0118a13.07371,13.07371,0,0,1-13.13456-13.13456V1372.82306a13.07361,13.07361,0,0,1,13.13456-13.11973h278.46759a13.07361,13.07361,0,0,1,13.13457,13.11973ZM2002.749,1591.124a184.5051,184.5051,0,0,1-21.34181,70.03616,194.44058,194.44058,0,0,1-45.13244,55.80334,213.31427,213.31427,0,0,1-138.69209,50.3269q-43.78929,0-82.07247-16.41449a218.94929,218.94929,0,0,1-67.02338-44.31617,207.38015,207.38015,0,0,1-45.39958-65.64313,202.04758,202.04758,0,0,1,0-160.85017,210.6346,210.6346,0,0,1,45.39958-65.92512,216.547,216.547,0,0,1,67.02338-44.59815q38.29059-16.40708,82.07247-16.4145,60.17412,0,104.76484,24.62174a200.5578,200.5578,0,0,1,72.49983,67.83965,12.87265,12.87265,0,0,1,1.3654,10.12178,13.14338,13.14338,0,0,1-5.74359,8.48923l-65.658,42.11965a14.036,14.036,0,0,1-9.83979,1.91453,14.99853,14.99853,0,0,1-9.3055-5.19446,145.51023,145.51023,0,0,0-38.02345-33.37811q-21.08209-12.578-50.05976-12.58544a92.0182,92.0182,0,0,0-39.1217,8.48923,105.15115,105.15115,0,0,0-32.01272,22.70721,107.14592,107.14592,0,0,0-21.609,33.09614,101.18078,101.18078,0,0,0,0,78.51055,104.44581,104.44581,0,0,0,21.609,32.547,107.50038,107.50038,0,0,0,32.01272,22.44007,92.00614,92.00614,0,0,0,39.1217,8.47439,115.25337,115.25337,0,0,0,41.03624-7.65812,66.97649,66.97649,0,0,0,32.27986-25.17087q2.716-4.36334.53428-7.92526t-7.65811-3.56191h-62.91234a13.07371,13.07371,0,0,1-13.13456-13.13457v-65.094a13.07371,13.07371,0,0,1,13.13456-13.13457h188.20272a14.19221,14.19221,0,0,1,9.57264,3.54708,13.81685,13.81685,0,0,1,4.66018,9.58749,199.41018,199.41018,0,0,1,1.08341,22.69237A240.02653,240.02653,0,0,1,2002.749,1591.124Zm172.33734,155.92285a12.71212,12.71212,0,0,1-3.81421,9.3055,12.559,12.559,0,0,1-9.24614,3.82906h-82.206a12.34554,12.34554,0,0,1-9.52813-3.82906,13.20542,13.20542,0,0,1-3.53223-9.3055V1373.37219a13.25593,13.25593,0,0,1,3.53223-9.30551,12.39738,12.39738,0,0,1,9.52813-3.82906h82.206a12.61622,12.61622,0,0,1,9.24614,3.82906,12.76,12.76,0,0,1,3.81421,9.30551Zm414.42888-40.75425a211.52837,211.52837,0,0,1-65.92512,44.58331,205.23421,205.23421,0,0,1-160.85017,0,207.96,207.96,0,0,1-65.658-44.58331,213.95837,213.95837,0,0,1-44.31616-65.92512,205.2341,205.2341,0,0,1,0-160.85017,213.95825,213.95825,0,0,1,44.31616-65.92512,208.246,208.246,0,0,1,65.658-44.59815,205.2341,205.2341,0,0,1,160.85017,0,209.94909,209.94909,0,0,1,110.50843,110.52327,205.23421,205.23421,0,0,1,0,160.85017A211.60984,211.60984,0,0,1,2589.5152,1706.29256Zm360.07627,382.10913-68.63737,66.90557a10.14578,10.14578,0,0,0-2.91818,8.97992l16.203,94.47146a10.14474,10.14474,0,0,1-14.7198,10.695l-84.84131-44.60372a10.14569,10.14569,0,0,0-9.44186,0l-84.8413,44.60372a10.1455,10.1455,0,0,1-14.72073-10.695l16.20393-94.47146a10.14577,10.14577,0,0,0-2.91817-8.97992l-68.6383-66.90557a10.14562,10.14562,0,0,1,5.623-17.305l94.85548-13.78294a10.14736,10.14736,0,0,0,7.63864-5.55065l42.42018-85.95348a10.1455,10.1455,0,0,1,18.19546,0l42.42111,85.95348a10.14578,10.14578,0,0,0,7.63864,5.55065l94.85548,13.78294A10.14512,10.14512,0,0,1,2949.59147,2088.40169Zm139.15587-341.35488a13.04856,13.04856,0,0,1-13.10488,13.13456h-80.811a23.97333,23.97333,0,0,1-11.45749-3.27993,28.43888,28.43888,0,0,1-9.29066-7.65812l-142.49147-200.78814q-3.29476-4.38561-6.827-3.56192c-2.37461.54913-3.54708,2.6566-3.54708,6.29272v195.86083a12.63759,12.63759,0,0,1-3.85874,9.3055,12.76776,12.76776,0,0,1-9.35,3.82906H2726.085a12.76777,12.76777,0,0,1-9.35-3.82906,12.62412,12.62412,0,0,1-3.8439-9.3055V1372.82306a13.07351,13.07351,0,0,1,13.11972-13.11973h82.07247a28.76314,28.76314,0,0,1,20.79268,10.38892l142.23916,200.78815c2.19652,2.92374,4.46724,4.20009,6.84185,3.82906q3.56192-.53428,3.56192-6.01073V1372.82306a13.07349,13.07349,0,0,1,13.11972-13.11973h80.97421a13.07359,13.07359,0,0,1,13.13456,13.11973Z" transform="translate(-257.90726 -96.5625)"/><path class="cls-3" d="M3321.11656,660.02268c-31.53779-15.0157-64.96229-25.69681-99.03053-33.405l-389.06135-88.02755a3774.79544,3774.79544,0,0,0-1666.04889,0L777.91443,626.61766c-34.06824,7.70821-67.49273,18.38932-99.03053,33.405-60.64254,28.87285-92.45768,62.0404-92.45768,127.08618V1796.37855c0,674.48025,233.37968,857.6332,698.32467,1222.51713,97.34233,76.39845,207.68009,162.9901,325.14353,261.79708l289.73307,243.7a155.93061,155.93061,0,0,0,200.74548,0l289.73308-243.7c117.46344-98.807,227.80119-185.39863,325.14352-261.79708,464.945-364.88393,698.32467-548.03688,698.32467-1222.51713V787.10886C3413.57424,722.06308,3381.7591,688.89553,3321.11656,660.02268Z" transform="translate(-257.90726 -96.5625)"/><path class="cls-2" d="M3478.61259,496.62908c-35.29728-16.80594-72.70667-28.75969-110.83679-37.38713l-435.44232-98.52128a4224.79525,4224.79525,0,0,0-1864.6665,0L632.22466,459.242c-38.13012,8.62744-75.53951,20.58119-110.83679,37.38713-67.87212,32.31511-103.48014,69.43694-103.48014,142.2373V1768.45555c0,754.8877,261.20157,959.875,781.57517,1368.25791,108.94731,85.50638,232.43818,182.42109,363.90533,293.00744l324.27345,272.75275a174.51944,174.51944,0,0,0,224.6771,0l324.27345-272.75275c131.46715-110.58635,254.958-207.50106,363.90533-293.00744,520.3736-408.38289,781.57517-613.37021,781.57517-1368.25791V638.86638C3582.09273,566.066,3546.48471,528.94419,3478.61259,496.62908Zm-65.03835,1299.74947c0,674.48025-233.37967,857.6332-698.32467,1222.51713-97.34233,76.39845-207.68008,162.9901-325.14352,261.79708l-289.73308,243.7a155.93061,155.93061,0,0,1-200.74548,0l-289.73307-243.7c-117.46344-98.807-227.8012-185.39863-325.14353-261.79708-464.945-364.88393-698.32467-548.03688-698.32467-1222.51713V787.10886c0-65.04578,31.81514-98.21333,92.45768-127.08618,31.5378-15.0157,64.96229-25.69681,99.03053-33.405l389.06136-88.02755a3774.79544,3774.79544,0,0,1,1666.04889,0L3222.086,626.61766c34.06824,7.70821,67.49274,18.38932,99.03053,33.405,60.64254,28.87285,92.45768,62.0404,92.45768,127.08618Z" transform="translate(-257.90726 -96.5625)"/></svg>